<?xml version="1.0" encoding="utf-8"?>
<!-- Generator: Adobe Illustrator 24.1.0, SVG Export Plug-In . SVG Version: 6.00 Build 0)  -->
<svg version="1.1" id="Ebene_1" xmlns="http://www.w3.org/2000/svg" xmlns:xlink="http://www.w3.org/1999/xlink" x="0px" y="0px"
	 viewBox="0 0 435 233.9" style="enable-background:new 0 0 435 233.9;" xml:space="preserve">
<style type="text/css">
	.st0{fill:#EFD84D;}
	.st1{fill:#FFFFFF;}
</style>
<path class="st0" d="M203.5,36.6c-3.8-12.4-16.9-19.4-29.4-15.6s-19.4,16.9-15.6,29.4s16.9,19.4,29.4,15.6c0,0,0,0,0,0
	C200.3,62.2,207.3,49.1,203.5,36.6L203.5,36.6z"/>
<path class="st0" d="M168.3,81.1c-11.1-3.7-23.2,2.2-26.9,13.3c-0.1,0.2-7.8,20.1-36.9,38.4c-28.5,17.9-51.7,18.6-58.6,18.3
	c-1.2,0-2.7-0.2-3.2-0.2c-11.8-0.7-21.9,8.2-22.6,19.9c-0.7,10.8,6.8,20.4,17.4,22.3c3.6,0.6,36.2,5.6,79.6-18.3
	c1.3-0.7,7.8-4.7,10-6.1c42-26.4,53.4-57.3,54.6-60.8C185.4,96.9,179.4,84.9,168.3,81.1C168.3,81.1,168.3,81.1,168.3,81.1
	L168.3,81.1z"/>
<path class="st1" d="M223.7,172v1.3h13.5l-13.7,19.2c-0.1,0.2-0.2,0.4-0.2,0.6v0.6h15.9v-1.3h-13.8l13.7-19.1
	c0.1-0.2,0.2-0.4,0.2-0.6V172H223.7z M248.7,192c-0.8-0.3-1.5-0.9-2.1-1.5c-0.6-0.7-1-1.4-1.3-2.3c-0.3-0.9-0.5-1.9-0.4-2.8V172
	h-1.6v13.4c0,1.1,0.2,2.3,0.6,3.3c0.4,1,0.9,1.9,1.6,2.7c0.7,0.8,1.6,1.4,2.6,1.8c2.2,0.9,4.6,0.9,6.8,0c1-0.4,1.9-1,2.6-1.8
	c0.7-0.8,1.3-1.7,1.6-2.7c0.4-1.1,0.6-2.2,0.6-3.3V172h-1.6v13.4c0,1-0.1,1.9-0.5,2.8c-0.3,0.8-0.7,1.6-1.3,2.3
	c-0.6,0.6-1.3,1.2-2.1,1.5c-0.9,0.4-1.8,0.6-2.8,0.5C250.6,192.5,249.6,192.4,248.7,192L248.7,192z M272.1,172v21.6h12.9v-1.3h-11.4
	v-9h9.5V182h-9.5v-8.7h11.4V172H272.1z M294,183.9c0.3,0,0.6,0,0.9,0.1c0.2,0.1,0.4,0.3,0.6,0.5l6.9,8.8c0.1,0.1,0.2,0.2,0.4,0.3
	c0.1,0.1,0.3,0.1,0.4,0.1h1.4l-7.4-9.3c-0.2-0.2-0.4-0.4-0.6-0.6c0.9-0.1,1.8-0.3,2.6-0.7c0.7-0.3,1.4-0.7,1.9-1.3
	c0.5-0.5,0.9-1.1,1.2-1.8c0.3-0.7,0.4-1.5,0.4-2.3c0.1-1.6-0.6-3.2-1.8-4.2c-1.7-1.1-3.6-1.6-5.6-1.4h-5.5v21.6h1.5v-9.8L294,183.9z
	 M291.2,173.3h4c1.5-0.1,3.1,0.3,4.4,1.1c1,0.8,1.6,2.1,1.5,3.4c0,0.7-0.1,1.4-0.4,2c-0.3,0.6-0.7,1.1-1.2,1.5
	c-0.6,0.5-1.2,0.8-1.9,1c-0.8,0.2-1.7,0.4-2.6,0.3h-3.8L291.2,173.3L291.2,173.3z M309.9,172h-1.6v21.6h11.8v-1.3h-10.2V172z
	 M323.8,172v21.6h13v-1.3h-11.4v-9h9.5V182h-9.5v-8.7h11.4V172H323.8z M348.1,193.6c1,0,2.1-0.1,3.1-0.4c0.8-0.2,1.6-0.6,2.3-1.2
	c0.6-0.5,1.1-1.1,1.4-1.9c0.3-0.8,0.5-1.6,0.5-2.5c0.1-1.3-0.4-2.6-1.4-3.5c-1.1-1-2.5-1.6-3.9-1.7c0.7-0.2,1.3-0.4,1.9-0.8
	c0.5-0.3,1-0.7,1.4-1.2c0.4-0.4,0.7-0.9,0.9-1.5c0.2-0.5,0.3-1.1,0.3-1.6c0-0.8-0.1-1.6-0.4-2.3c-0.3-0.7-0.7-1.3-1.3-1.7
	c-0.7-0.5-1.4-0.9-2.2-1.1c-1-0.3-2.1-0.4-3.2-0.4h-6.2v21.6H348.1z M348.1,183.2c0.8,0,1.6,0.1,2.4,0.3c0.7,0.2,1.3,0.5,1.8,0.9
	c0.5,0.4,0.9,0.8,1.1,1.4c0.8,1.8,0.4,3.9-1.1,5.3c-1.2,0.9-2.8,1.3-4.3,1.2h-5.4v-9.1H348.1z M342.6,173.2h4.7
	c1.5-0.1,3,0.3,4.3,1.1c1,0.8,1.5,2,1.4,3.3c0,0.6-0.1,1.1-0.3,1.6c-0.2,0.5-0.6,1-1,1.4c-0.5,0.4-1.1,0.8-1.7,1
	c-0.8,0.3-1.7,0.4-2.6,0.4h-4.7V173.2L342.6,173.2z M360.4,172v21.6h12.9v-1.3H362v-9h9.5V182H362v-8.7h11.4V172H360.4z M378.4,172
	h-0.8v21.6h1.4v-18.1c0-0.3,0-0.6,0-0.9l14,18.8c0.1,0.2,0.3,0.3,0.6,0.3h0.7V172H393v18.1c0,0.3,0,0.6,0,0.9l-14-18.7
	c-0.1-0.1-0.2-0.2-0.3-0.2C378.7,172,378.6,172,378.4,172L378.4,172z"/>
<path class="st1" d="M228.6,162.2h1.4l6.4-18.8c0.1-0.3,0.2-0.5,0.2-0.8c0.1,0.3,0.1,0.5,0.2,0.8l6.4,18.8h1.4l6.8-21.6h-1.2
	c-0.1,0-0.3,0-0.4,0.1c-0.1,0.1-0.2,0.2-0.2,0.3l-5.4,17.8c-0.1,0.2-0.1,0.4-0.1,0.6c0,0.2-0.1,0.5-0.1,0.7
	c-0.1-0.2-0.1-0.5-0.2-0.7s-0.1-0.4-0.2-0.6l-6.1-17.7c0-0.1-0.1-0.2-0.2-0.3c-0.1-0.1-0.2-0.1-0.4-0.1h-0.4c-0.1,0-0.3,0-0.4,0.1
	c-0.1,0.1-0.2,0.2-0.2,0.3l-6.1,17.8c-0.1,0.2-0.1,0.4-0.2,0.7c0,0.2-0.1,0.5-0.1,0.7c0-0.2-0.1-0.5-0.1-0.7c0-0.2-0.1-0.4-0.2-0.7
	l-5.4-17.7c-0.1-0.3-0.3-0.4-0.6-0.4h-1.3L228.6,162.2L228.6,162.2z M261.2,140.6h-1.6l-8.8,21.6h1.2c0.1,0,0.3,0,0.4-0.1
	c0.1-0.1,0.2-0.2,0.2-0.3l2.5-6.3h10.6l2.5,6.3c0,0.1,0.1,0.2,0.2,0.3c0.1,0.1,0.2,0.1,0.4,0.1h1.2L261.2,140.6L261.2,140.6z
	 M260,143.4c0.1-0.2,0.1-0.4,0.2-0.6c0.1-0.2,0.1-0.4,0.2-0.7c0.1,0.2,0.1,0.5,0.2,0.7c0.1,0.2,0.1,0.4,0.2,0.6l4.4,10.9h-9.7
	L260,143.4z M288.2,158.6l-0.1,0.1c-0.4,0.4-0.8,0.7-1.3,1c-0.4,0.3-0.9,0.6-1.4,0.8c-0.5,0.2-1.1,0.4-1.7,0.5
	c-0.7,0.1-1.4,0.2-2.1,0.1c-1.2,0-2.3-0.2-3.4-0.7c-1-0.4-2-1.1-2.7-1.9c-0.8-0.9-1.4-1.9-1.8-3.1c-0.5-1.3-0.7-2.7-0.7-4.1
	c0-1.4,0.2-2.7,0.7-4c0.4-1.1,1-2.2,1.9-3.1c0.8-0.8,1.8-1.5,2.8-1.9c1.2-0.5,2.4-0.7,3.6-0.7c0.6,0,1.3,0.1,1.9,0.2
	c0.5,0.1,1,0.2,1.5,0.4c0.4,0.1,0.8,0.3,1.1,0.5c0.3,0.2,0.6,0.4,0.8,0.5l0.5,0.4c0.1,0.1,0.2,0.1,0.4,0.2c0.2,0,0.3-0.1,0.4-0.2
	l0.5-0.7c-0.5-0.4-1-0.8-1.5-1.1c-0.5-0.3-1-0.6-1.6-0.8c-0.6-0.2-1.2-0.4-1.8-0.5c-0.7-0.1-1.4-0.2-2.1-0.2c-1.5,0-2.9,0.3-4.3,0.8
	c-1.3,0.5-2.4,1.3-3.3,2.3c-0.9,1-1.7,2.2-2.2,3.5c-0.5,1.4-0.8,3-0.8,4.5c0,1.5,0.2,3.1,0.8,4.6c0.5,1.3,1.2,2.5,2.1,3.5
	c0.9,1,2,1.7,3.2,2.2c1.3,0.5,2.7,0.8,4.1,0.8c0.8,0,1.7-0.1,2.5-0.2c0.7-0.1,1.4-0.3,2.1-0.6c0.6-0.3,1.2-0.6,1.7-1
	c0.5-0.4,1-0.8,1.5-1.3l-0.6-0.7c-0.1-0.1-0.2-0.1-0.3-0.1C288.3,158.5,288.3,158.5,288.2,158.6L288.2,158.6z M310.1,140.6h-1.6
	v10.1H295v-10.1h-1.6v21.6h1.6v-10.4h13.5v10.4h1.6L310.1,140.6L310.1,140.6z M327.1,142.5c-0.7-0.7-1.5-1.3-2.4-1.6
	c-1-0.4-2-0.6-3-0.5c-0.9,0-1.8,0.1-2.7,0.5c-0.7,0.3-1.4,0.7-2,1.2c-0.5,0.5-0.9,1.1-1.2,1.8c-0.3,0.7-0.4,1.4-0.4,2.1
	c0,0.8,0.1,1.6,0.5,2.3c0.3,0.6,0.7,1.1,1.2,1.5c0.5,0.4,1.1,0.8,1.7,1c0.6,0.3,1.3,0.5,2,0.7s1.4,0.4,2,0.7
	c0.6,0.2,1.2,0.5,1.7,0.8c0.5,0.3,0.9,0.7,1.2,1.2c0.3,0.6,0.5,1.2,0.5,1.9c0,0.7-0.1,1.4-0.4,2c-0.2,0.6-0.6,1.1-1.1,1.6
	c-0.5,0.5-1.1,0.8-1.7,1.1c-0.7,0.3-1.5,0.4-2.3,0.4c-0.6,0-1.1-0.1-1.7-0.2c-0.4-0.1-0.9-0.3-1.3-0.4c-0.4-0.2-0.7-0.4-1-0.6
	c-0.3-0.2-0.5-0.4-0.7-0.6l-0.5-0.4c-0.1-0.1-0.2-0.2-0.4-0.2c-0.2,0-0.3,0.1-0.4,0.2l-0.4,0.7c0.8,0.9,1.7,1.6,2.7,2.1
	c1.2,0.5,2.4,0.8,3.7,0.8c1,0,2-0.2,2.9-0.5c0.8-0.3,1.6-0.8,2.2-1.4c0.6-0.6,1.1-1.3,1.4-2.1c0.3-0.8,0.5-1.7,0.5-2.6
	c0-0.8-0.1-1.5-0.5-2.2c-0.3-0.6-0.7-1.1-1.2-1.5c-0.5-0.4-1.1-0.7-1.7-1c-0.6-0.3-1.3-0.5-2-0.7s-1.4-0.4-2-0.7
	c-0.6-0.2-1.2-0.5-1.7-0.8c-0.5-0.3-0.9-0.7-1.2-1.2c-0.3-0.5-0.5-1.2-0.5-1.8c0-0.6,0.1-1.1,0.3-1.6c0.2-0.5,0.5-1,0.9-1.3
	c0.4-0.4,0.9-0.7,1.5-0.9c1.3-0.4,2.7-0.4,4.1,0c0.5,0.2,0.9,0.4,1.3,0.6c0.3,0.2,0.6,0.4,0.9,0.6c0.1,0.1,0.3,0.2,0.5,0.3
	c0.2,0,0.3-0.1,0.4-0.3L327.1,142.5L327.1,142.5z M330.1,140.6v1.3h7.6v20.3h1.6v-20.3h7.6v-1.3H330.1z M355.9,160.5
	c-0.8-0.3-1.5-0.9-2.1-1.5c-0.6-0.7-1-1.4-1.3-2.3c-0.3-0.9-0.5-1.9-0.5-2.8v-13.3h-1.6v13.4c0,1.1,0.2,2.3,0.6,3.3
	c0.4,1,0.9,1.9,1.6,2.7c0.7,0.8,1.6,1.4,2.6,1.8c2.2,0.9,4.6,0.9,6.8,0c1-0.4,1.9-1,2.6-1.8c0.7-0.8,1.3-1.7,1.6-2.7
	c0.4-1.1,0.6-2.2,0.6-3.3v-13.4h-1.6v13.4c0,1-0.1,1.9-0.5,2.8c-0.3,0.8-0.7,1.6-1.3,2.3c-0.6,0.6-1.3,1.2-2.1,1.5
	c-0.9,0.4-1.8,0.6-2.8,0.5C357.7,161.1,356.8,160.9,355.9,160.5L355.9,160.5z M383.3,155.9l-8.7-15c-0.1-0.1-0.1-0.2-0.2-0.2
	c-0.1,0-0.2,0-0.4,0h-1.1v21.6h1.4v-18.5c0-0.3,0-0.6,0-0.9l8.6,15.1c0.1,0.2,0.3,0.4,0.6,0.4h0.2c0.3,0,0.5-0.2,0.6-0.4l8.5-15.1
	c0,0.3,0,0.6,0,0.8v18.4h1.4v-21.6h-1.1c-0.1,0-0.2,0-0.3,0c-0.1,0.1-0.2,0.1-0.2,0.2l-8.5,15c-0.1,0.1-0.2,0.3-0.2,0.4l-0.2,0.5
	C383.5,156.4,383.4,156.1,383.3,155.9L383.3,155.9z"/>
<path class="st1" d="M230.6,130.7h1.4l8.9-21.6h-1.2c-0.1,0-0.3,0-0.4,0.1c-0.1,0.1-0.2,0.2-0.2,0.3l-7.4,17.9
	c-0.2,0.5-0.3,1-0.4,1.5c-0.1-0.5-0.3-1-0.5-1.5l-7.4-17.9c0-0.1-0.1-0.2-0.2-0.3c-0.1-0.1-0.2-0.1-0.4-0.1h-1.2L230.6,130.7
	L230.6,130.7z M261.9,115.3c-0.5-1.3-1.2-2.5-2.1-3.5c-0.9-1-2-1.7-3.2-2.2c-1.3-0.5-2.8-0.8-4.2-0.8c-1.4,0-2.8,0.2-4.2,0.8
	c-1.2,0.5-2.3,1.3-3.2,2.2c-0.9,1-1.7,2.2-2.1,3.5c-0.5,1.5-0.8,3-0.8,4.5c0,1.5,0.2,3.1,0.8,4.6c0.5,1.3,1.2,2.5,2.1,3.5
	c0.9,1,2,1.7,3.2,2.2c2.7,1,5.7,1,8.4,0c1.2-0.5,2.3-1.3,3.2-2.2c0.9-1,1.6-2.2,2.1-3.5c0.5-1.5,0.8-3,0.7-4.6
	C262.7,118.3,262.4,116.8,261.9,115.3z M260.4,123.9c-0.4,1.1-1,2.1-1.8,3c-0.8,0.8-1.7,1.5-2.7,1.9c-1.1,0.4-2.3,0.7-3.6,0.6
	c-1.2,0-2.4-0.2-3.5-0.6c-1-0.4-2-1.1-2.8-1.9c-0.8-0.9-1.4-1.9-1.8-3c-0.9-2.6-0.9-5.5,0-8.1c0.4-1.1,1-2.1,1.8-3
	c0.8-0.8,1.7-1.5,2.8-1.9c1.1-0.5,2.3-0.7,3.5-0.7c1.2,0,2.4,0.2,3.6,0.7c1,0.4,2,1.1,2.7,1.9c0.8,0.9,1.4,1.9,1.8,3
	C261.3,118.4,261.3,121.3,260.4,123.9z M277.8,124.4l-8.7-15c-0.1-0.1-0.1-0.2-0.2-0.2c-0.1,0-0.2-0.1-0.3-0.1h-1.1v21.6h1.4v-18.4
	c0-0.3,0-0.6,0-0.8l8.7,15.1c0.1,0.2,0.3,0.4,0.6,0.4h0.2c0.3,0,0.5-0.2,0.6-0.4l8.5-15.1c0,0.3,0,0.6,0,0.8v18.4h1.4v-21.6h-1.1
	c-0.1,0-0.2,0-0.3,0.1c-0.1,0.1-0.2,0.1-0.2,0.2l-8.5,15c-0.1,0.1-0.2,0.3-0.2,0.4c-0.1,0.2-0.1,0.3-0.2,0.5
	C278.2,125,278,124.7,277.8,124.4L277.8,124.4z M306.7,129c-1.1-0.4-2-1.1-2.8-1.9c-0.8-0.9-1.4-1.9-1.8-3.1
	c-0.5-1.3-0.7-2.7-0.6-4.1c0-1.4,0.2-2.7,0.6-4c0.4-1.1,1-2.2,1.8-3.1c0.8-0.8,1.8-1.5,2.9-1.9c1.2-0.5,2.5-0.7,3.8-0.7
	c0.9,0,1.8,0.1,2.7,0.3c0.6,0.2,1.3,0.4,1.9,0.7c0.4,0.2,0.8,0.4,1.2,0.7c0.2,0.2,0.4,0.3,0.7,0.4c0.1,0,0.2,0.1,0.3,0.1
	c0.2,0,0.3-0.1,0.4-0.2l0.4-0.7c-0.5-0.4-1-0.8-1.5-1.1c-0.5-0.3-1.1-0.6-1.7-0.8c-0.6-0.2-1.3-0.4-1.9-0.5
	c-0.8-0.1-1.5-0.2-2.3-0.2c-1.5,0-3.1,0.2-4.5,0.8c-1.3,0.5-2.4,1.3-3.4,2.2c-1,1-1.7,2.2-2.2,3.5c-1,2.9-1,6.1,0,9.1
	c0.5,1.3,1.2,2.5,2.1,3.5c0.9,1,2.1,1.7,3.3,2.2c1.4,0.5,2.8,0.8,4.3,0.8c0.8,0,1.7-0.1,2.5-0.2c0.7-0.1,1.4-0.3,2.1-0.5
	c0.6-0.2,1.3-0.4,1.9-0.7c0.6-0.3,1.1-0.6,1.7-1v-7.7h-6v0.9c0,0.1,0,0.2,0.1,0.2c0.1,0.1,0.2,0.1,0.3,0.1h4.2v5.8
	c-0.5,0.3-0.9,0.5-1.4,0.7c-0.5,0.2-1,0.4-1.5,0.6c-0.6,0.2-1.1,0.3-1.7,0.4c-0.7,0.1-1.3,0.1-2,0.1
	C309.1,129.7,307.9,129.5,306.7,129L306.7,129z M325.2,109.1h-1.5v21.6h11.8v-1.3h-10.2C325.2,129.3,325.2,109.1,325.2,109.1z
	 M343,129c-0.8-0.3-1.5-0.9-2.1-1.5c-0.6-0.7-1-1.4-1.3-2.3c-0.3-0.9-0.5-1.9-0.5-2.8v-13.3h-1.6v13.4c0,1.1,0.2,2.3,0.6,3.3
	c0.3,1,0.9,1.9,1.6,2.7c0.7,0.8,1.6,1.4,2.6,1.8c2.2,0.9,4.6,0.9,6.8,0c1-0.4,1.9-1,2.6-1.8c0.7-0.8,1.3-1.7,1.6-2.7
	c0.4-1.1,0.6-2.2,0.6-3.3v-13.4h-1.6v13.4c0,1-0.1,1.9-0.5,2.8c-0.3,0.8-0.7,1.6-1.3,2.3c-0.6,0.6-1.3,1.2-2.1,1.5
	C346.8,129.7,344.8,129.7,343,129L343,129z M343.7,104.8c-0.1-0.2-0.2-0.3-0.3-0.4c-0.1-0.1-0.2-0.2-0.4-0.3
	c-0.2-0.1-0.3-0.1-0.5-0.1c-0.2,0-0.3,0-0.5,0.1c-0.1,0.1-0.3,0.2-0.4,0.3c-0.1,0.1-0.2,0.3-0.3,0.4c-0.1,0.1-0.1,0.3-0.1,0.5
	c0,0.2,0,0.3,0.1,0.5c0.1,0.1,0.2,0.3,0.3,0.4c0.1,0.1,0.2,0.2,0.4,0.3c0.1,0.1,0.3,0.1,0.5,0.1c0.2,0,0.3,0,0.5-0.1
	c0.1-0.1,0.3-0.2,0.4-0.3c0.1-0.1,0.2-0.2,0.3-0.4c0.1-0.1,0.1-0.3,0.1-0.5C343.8,105.1,343.8,104.9,343.7,104.8z M350.1,104.8
	c-0.1-0.2-0.2-0.3-0.3-0.4c-0.1-0.1-0.2-0.2-0.4-0.3c-0.1-0.1-0.3-0.1-0.5-0.1c-0.3,0-0.6,0.1-0.9,0.4c-0.2,0.2-0.4,0.5-0.4,0.9
	c0,0.2,0,0.3,0.1,0.5c0.1,0.1,0.2,0.3,0.3,0.4c0.1,0.1,0.2,0.2,0.4,0.3c0.2,0.1,0.3,0.1,0.5,0.1c0.2,0,0.3,0,0.5-0.1
	c0.1-0.1,0.3-0.2,0.4-0.3c0.1-0.1,0.2-0.2,0.3-0.4c0.1-0.1,0.1-0.3,0.1-0.5C350.2,105.1,350.2,104.9,350.1,104.8L350.1,104.8z
	 M375.4,127.1l-0.1,0.1c-0.4,0.4-0.8,0.7-1.3,1c-0.4,0.3-0.9,0.6-1.4,0.8c-0.5,0.2-1.1,0.4-1.7,0.5c-0.7,0.1-1.4,0.2-2.1,0.1
	c-1.2,0-2.3-0.2-3.4-0.7c-1-0.4-2-1.1-2.7-1.9c-0.8-0.9-1.4-1.9-1.8-3c-0.5-1.3-0.7-2.7-0.7-4.1c0-1.4,0.2-2.7,0.7-4
	c0.4-1.1,1-2.1,1.9-3c0.8-0.8,1.8-1.5,2.8-1.9c1.2-0.5,2.4-0.7,3.6-0.7c0.6,0,1.3,0,1.9,0.2c0.5,0.1,1,0.2,1.5,0.4
	c0.4,0.1,0.8,0.3,1.1,0.5c0.3,0.2,0.6,0.4,0.8,0.5l0.5,0.4c0.1,0.1,0.2,0.1,0.4,0.2c0.1,0,0.3-0.1,0.4-0.2l0.5-0.7
	c-0.5-0.4-1-0.8-1.5-1.1c-0.5-0.3-1-0.6-1.6-0.8c-0.6-0.2-1.2-0.4-1.8-0.5c-0.7-0.1-1.4-0.2-2.1-0.2c-1.5,0-2.9,0.3-4.3,0.8
	c-1.3,0.5-2.4,1.3-3.3,2.3c-1,1-1.7,2.2-2.2,3.5c-0.5,1.4-0.8,3-0.8,4.5c0,1.5,0.2,3.1,0.7,4.6c0.5,1.3,1.2,2.5,2.1,3.5
	c0.9,1,2,1.7,3.2,2.2c1.3,0.5,2.7,0.8,4.1,0.8c0.8,0,1.7-0.1,2.5-0.2c0.7-0.1,1.4-0.4,2.1-0.6c1.2-0.5,2.3-1.3,3.2-2.3l-0.6-0.7
	c-0.1-0.1-0.2-0.1-0.3-0.1C375.5,127.1,375.5,127.1,375.4,127.1L375.4,127.1z M382.3,109.1h-1.5v21.6h1.5v-10.4h1.4
	c0.2,0,0.4,0,0.6,0c0.1,0,0.3,0.1,0.4,0.1c0.1,0.1,0.2,0.1,0.3,0.2l0.3,0.3l9.1,9.3c0.1,0.1,0.2,0.2,0.4,0.3
	c0.2,0.1,0.4,0.1,0.6,0.1h1.3l-10-10.4c-0.2-0.2-0.3-0.3-0.5-0.5c-0.2-0.1-0.4-0.2-0.6-0.3c0.2-0.1,0.3-0.2,0.5-0.3
	c0.2-0.1,0.4-0.3,0.5-0.5l9.4-9.7h-1.3c-0.2,0-0.4,0-0.5,0.1c-0.2,0.1-0.3,0.2-0.5,0.3l-8.7,9c-0.1,0.1-0.2,0.2-0.3,0.3
	c-0.1,0.1-0.2,0.1-0.3,0.2c-0.1,0-0.3,0.1-0.4,0.1h-0.5h-1.3L382.3,109.1L382.3,109.1z"/>
<path class="st1" d="M238.9,76.6v9.7h-10.6v-9.7H224v22.6h4.2v-9.9h10.6v9.9h4.2V76.6H238.9z M253.7,90.6l2.7-7.5
	c0.1-0.3,0.3-0.8,0.4-1.2s0.3-1,0.4-1.5c0.1,0.5,0.3,1,0.4,1.5s0.3,0.9,0.4,1.2l2.8,7.5H253.7z M259.4,76.6h-4.3l-8.9,22.6h3.3
	c0.3,0,0.6-0.1,0.9-0.3c0.2-0.2,0.4-0.4,0.5-0.7l1.7-4.6h9.4l1.7,4.6c0.1,0.3,0.3,0.5,0.5,0.7c0.3,0.2,0.6,0.3,0.9,0.3h3.2
	L259.4,76.6L259.4,76.6z M275.6,87.9v-8.1h3.1c0.7,0,1.4,0.1,2,0.3c0.5,0.2,1,0.4,1.4,0.8c0.4,0.3,0.7,0.8,0.8,1.2
	c0.2,0.5,0.3,1.1,0.3,1.7c0,0.6-0.1,1.2-0.3,1.7c-0.2,0.5-0.5,1-0.9,1.3c-0.4,0.4-0.9,0.7-1.4,0.8c-0.6,0.2-1.3,0.3-2,0.3
	L275.6,87.9z M271.4,76.6v22.6h4.2v-8h3.1c1.3,0,2.6-0.2,3.9-0.5c1-0.3,1.9-0.8,2.7-1.5c0.7-0.6,1.3-1.4,1.7-2.3c0.4-1,0.6-2,0.5-3
	c0-1-0.2-2-0.5-2.9c-0.3-0.9-0.9-1.7-1.6-2.3c-0.8-0.7-1.7-1.2-2.7-1.5c-1.3-0.4-2.6-0.6-3.9-0.5L271.4,76.6z M295.4,87.9v-8.1h3.1
	c0.7,0,1.4,0.1,2,0.3c0.5,0.2,1,0.4,1.4,0.8c0.4,0.3,0.7,0.8,0.8,1.2c0.2,0.5,0.3,1.1,0.3,1.7c0,0.6-0.1,1.2-0.3,1.7
	c-0.2,0.5-0.5,1-0.9,1.3c-0.4,0.4-0.9,0.7-1.4,0.8c-0.6,0.2-1.3,0.3-2,0.3L295.4,87.9z M291.2,76.6v22.6h4.2v-8h3.1
	c1.3,0,2.6-0.2,3.9-0.5c1-0.3,1.9-0.8,2.8-1.5c0.7-0.6,1.3-1.4,1.6-2.3c0.4-1,0.6-2,0.5-3c0-1-0.2-2-0.5-2.9
	c-0.3-0.9-0.9-1.7-1.6-2.3c-0.8-0.7-1.7-1.2-2.7-1.5c-1.3-0.4-2.6-0.6-3.9-0.5L291.2,76.6z M315.2,76.6H311v22.6h4.2L315.2,76.6
	L315.2,76.6z M336.4,76.6v13.8c0,0.3,0,0.6,0,1s0,0.7,0.1,1.1l-11.9-15.2c-0.1-0.1-0.2-0.2-0.3-0.4c-0.1-0.1-0.2-0.1-0.3-0.2
	c-0.1-0.1-0.2-0.1-0.4-0.1c-0.2,0-0.3,0-0.5,0H321v22.6h3.7V85.3c0-0.6,0-1.2-0.1-1.9l11.8,15.1c0.2,0.2,0.4,0.4,0.6,0.5
	c0.3,0.1,0.6,0.2,0.8,0.2h2.2V76.6H336.4z M360.1,79.9v-3.3h-14.3v22.6h14.3v-3.4H350v-6.4h7.9v-3.2H350v-6.3L360.1,79.9z
	 M377.9,78.7c-0.8-0.8-1.8-1.4-2.9-1.7c-1.2-0.4-2.4-0.6-3.7-0.6c-1.1,0-2.2,0.2-3.2,0.6c-0.9,0.3-1.6,0.8-2.3,1.5
	c-0.6,0.6-1.1,1.3-1.4,2.1c-0.3,0.8-0.5,1.6-0.5,2.4c0,0.9,0.1,1.8,0.5,2.6c0.3,0.7,0.7,1.3,1.2,1.8c0.5,0.5,1.1,0.9,1.7,1.1
	c0.6,0.3,1.3,0.5,1.9,0.8c0.6,0.2,1.3,0.4,1.9,0.6c0.6,0.2,1.1,0.4,1.7,0.7c0.5,0.2,0.9,0.6,1.2,0.9c0.3,0.4,0.5,0.9,0.4,1.4
	c0.1,0.9-0.3,1.8-1,2.4c-0.8,0.6-1.8,0.9-2.8,0.9c-0.7,0-1.4-0.1-2-0.3c-0.5-0.2-1-0.4-1.5-0.7c-0.4-0.3-0.8-0.5-1.1-0.7
	c-0.2-0.2-0.5-0.3-0.9-0.3c-0.2,0-0.4,0.1-0.5,0.2c-0.2,0.1-0.3,0.2-0.4,0.4l-1.2,2c0.5,0.5,1,0.9,1.5,1.2c0.6,0.4,1.2,0.7,1.8,0.9
	c0.6,0.3,1.3,0.5,2,0.6c0.7,0.1,1.4,0.2,2.1,0.2c1.1,0,2.3-0.2,3.3-0.6c0.9-0.4,1.8-0.9,2.5-1.6c0.7-0.6,1.2-1.4,1.5-2.3
	c0.4-0.9,0.5-1.9,0.5-2.9c0-0.8-0.1-1.6-0.4-2.4c-0.3-0.7-0.7-1.2-1.2-1.7c-0.5-0.4-1-0.8-1.6-1.1c-0.6-0.3-1.3-0.5-1.9-0.8
	l-1.9-0.6c-0.6-0.2-1.1-0.4-1.7-0.7c-0.5-0.2-0.9-0.5-1.2-0.9c-0.3-0.4-0.5-0.8-0.5-1.3c0-0.4,0.1-0.8,0.2-1.2
	c0.1-0.3,0.4-0.7,0.7-0.9c0.3-0.3,0.7-0.5,1.1-0.6c0.5-0.1,1-0.2,1.5-0.2c0.6,0,1.1,0.1,1.6,0.3c0.4,0.1,0.9,0.3,1.2,0.5
	c0.4,0.2,0.7,0.4,0.9,0.5c0.2,0.1,0.5,0.2,0.7,0.2c0.2,0,0.4,0,0.5-0.1c0.2-0.1,0.3-0.3,0.4-0.5L377.9,78.7L377.9,78.7z M395.6,78.7
	c-0.8-0.8-1.8-1.4-2.9-1.8c-1.2-0.4-2.4-0.6-3.7-0.6c-1.1,0-2.2,0.2-3.2,0.6c-0.9,0.3-1.6,0.8-2.3,1.5c-0.6,0.6-1.1,1.3-1.4,2.1
	c-0.3,0.8-0.5,1.6-0.5,2.4c0,0.9,0.1,1.8,0.4,2.6c0.3,0.7,0.7,1.3,1.2,1.8c0.5,0.5,1.1,0.9,1.7,1.1c0.6,0.3,1.3,0.5,1.9,0.8
	c0.6,0.2,1.3,0.4,1.9,0.6c0.6,0.2,1.1,0.4,1.7,0.7c0.5,0.2,0.9,0.6,1.2,0.9c0.3,0.4,0.5,0.9,0.5,1.4c0.1,0.9-0.3,1.8-1,2.4
	c-0.8,0.6-1.8,0.9-2.8,0.9c-0.7,0-1.4-0.1-2-0.3c-0.5-0.2-1-0.4-1.5-0.7c-0.4-0.3-0.8-0.5-1.1-0.7c-0.2-0.2-0.5-0.3-0.9-0.3
	c-0.2,0-0.4,0.1-0.5,0.2c-0.2,0.1-0.3,0.2-0.4,0.4l-1.2,2c0.5,0.5,1,0.9,1.5,1.2c0.6,0.4,1.2,0.7,1.8,0.9c0.6,0.3,1.3,0.5,2,0.6
	c0.7,0.1,1.4,0.2,2.1,0.2c1.1,0,2.3-0.2,3.3-0.6c0.9-0.4,1.8-0.9,2.5-1.6c0.7-0.7,1.2-1.4,1.5-2.3c0.4-0.9,0.5-1.9,0.5-2.9
	c0-0.8-0.1-1.6-0.5-2.4c-0.3-0.6-0.7-1.2-1.2-1.7c-0.5-0.5-1.1-0.8-1.7-1.1c-0.6-0.3-1.3-0.6-1.9-0.8l-1.9-0.6
	c-0.6-0.2-1.1-0.4-1.7-0.7c-0.4-0.2-0.8-0.5-1.2-0.9c-0.3-0.4-0.5-0.8-0.4-1.3c0-0.4,0.1-0.8,0.2-1.2c0.1-0.4,0.4-0.7,0.7-0.9
	c0.3-0.3,0.7-0.5,1.1-0.6c0.5-0.1,1-0.2,1.5-0.2c0.6,0,1.1,0.1,1.7,0.2c0.4,0.1,0.8,0.3,1.2,0.5c0.4,0.2,0.7,0.4,0.9,0.5
	c0.2,0.1,0.5,0.2,0.7,0.2c0.2,0,0.4,0,0.5-0.1c0.2-0.1,0.3-0.3,0.4-0.5L395.6,78.7L395.6,78.7z M403.6,79.2v-2.1h0.9
	c0.2,0,0.4,0,0.6,0.1c0.1,0,0.3,0.1,0.4,0.2c0.1,0.1,0.2,0.2,0.2,0.3c0,0.1,0,0.3,0,0.4c0,0.2,0,0.3-0.1,0.5c0,0.1-0.1,0.3-0.2,0.3
	c-0.1,0.1-0.3,0.2-0.4,0.2c-0.2,0-0.5,0.1-0.7,0.1H403.6z M401.9,75.7v7.4h1.8v-2.7h0.5c0.1,0,0.2,0,0.3,0.1c0.1,0,0.1,0.1,0.2,0.2
	l1.2,2.2c0.1,0.2,0.3,0.3,0.5,0.3h1.7l-1.5-2.5c-0.1-0.1-0.2-0.3-0.2-0.4c-0.1-0.1-0.2-0.2-0.3-0.3c0.9-0.2,1.6-1.1,1.6-2.1
	c0-0.6-0.2-1.2-0.7-1.6c-0.7-0.4-1.5-0.6-2.3-0.6H401.9z M402.6,84.2c-0.6-0.3-1.1-0.6-1.6-1.1c-0.5-0.5-0.8-1-1-1.6
	c-0.4-1.1-0.5-2.3-0.2-3.4c0.1-0.4,0.3-0.8,0.5-1.2c0.2-0.4,0.5-0.7,0.8-1c0.3-0.3,0.6-0.6,1-0.8c0.4-0.2,0.8-0.4,1.2-0.5
	c0.4-0.1,0.9-0.2,1.3-0.2c0.5,0,0.9,0.1,1.4,0.2c0.4,0.1,0.8,0.3,1.2,0.5c0.4,0.2,0.7,0.5,1,0.8c0.3,0.3,0.6,0.6,0.8,1
	c0.2,0.4,0.4,0.8,0.5,1.2c0.2,0.9,0.2,1.8,0,2.7c-0.1,0.4-0.3,0.8-0.5,1.2c-0.2,0.4-0.5,0.7-0.8,1c-0.3,0.3-0.6,0.6-1,0.8
	c-0.4,0.2-0.8,0.4-1.2,0.5c-0.4,0.1-0.9,0.2-1.4,0.2C403.9,84.5,403.2,84.4,402.6,84.2L402.6,84.2z M402.9,73.6
	c-1,0.3-1.9,0.8-2.7,1.6c-0.4,0.4-0.7,0.8-1,1.2c-0.3,0.5-0.5,0.9-0.6,1.4c-0.3,1.1-0.3,2.2,0,3.2c0.1,0.5,0.3,1,0.6,1.4
	c0.3,0.5,0.6,0.9,1,1.2c0.4,0.4,0.8,0.7,1.2,1c0.9,0.5,2,0.8,3.1,0.8c0.5,0,1.1-0.1,1.6-0.2c0.5-0.1,1-0.4,1.5-0.6
	c0.9-0.5,1.7-1.3,2.2-2.2c0.3-0.5,0.5-0.9,0.6-1.4c0.1-0.5,0.2-1.1,0.2-1.6c0-0.5-0.1-1.1-0.2-1.6c-0.1-0.5-0.4-1-0.6-1.4
	c-0.5-0.9-1.3-1.7-2.2-2.2c-0.5-0.3-0.9-0.5-1.5-0.6c-0.5-0.1-1.1-0.2-1.6-0.2C404,73.4,403.5,73.5,402.9,73.6L402.9,73.6z"/>
<path class="st1" d="M238.1,62.8c-0.1,0.1-0.2,0.1-0.3,0.2c-0.3,0.3-0.6,0.5-1,0.7c-0.3,0.2-0.6,0.4-1,0.5c-0.4,0.1-0.8,0.2-1.2,0.3
	c-0.5,0.1-1,0.1-1.5,0.1c-0.9,0-1.7-0.2-2.5-0.5c-0.8-0.3-1.4-0.8-2-1.5c-0.6-0.7-1.1-1.5-1.4-2.3c-0.4-1-0.5-2.1-0.5-3.2
	c0-1.1,0.1-2.1,0.5-3.2c0.3-0.9,0.7-1.7,1.3-2.3c0.5-0.6,1.2-1.1,2-1.5c0.8-0.3,1.7-0.5,2.6-0.5c0.5,0,1,0,1.5,0.1
	c0.4,0.1,0.8,0.2,1.1,0.3c0.3,0.1,0.6,0.2,0.9,0.4c0.2,0.2,0.5,0.3,0.6,0.4s0.4,0.2,0.5,0.3c0.1,0.1,0.3,0.1,0.4,0.1
	c0.2,0,0.3,0,0.5-0.1c0.1-0.1,0.2-0.2,0.3-0.3l1.3-1.8c-0.9-0.9-1.9-1.5-3.1-2c-1.3-0.5-2.7-0.8-4.1-0.8c-1.5,0-2.9,0.3-4.2,0.8
	c-1.2,0.5-2.4,1.3-3.3,2.2c-0.9,1-1.7,2.1-2.1,3.4c-0.5,1.4-0.8,2.9-0.8,4.4c0,1.5,0.2,3,0.7,4.3c0.4,1.3,1.1,2.4,2,3.4
	c0.9,1,2,1.7,3.2,2.2c1.3,0.6,2.8,0.8,4.2,0.8c1.5,0,3.1-0.3,4.5-0.8c1.2-0.6,2.3-1.4,3.2-2.4L239,63c-0.1-0.2-0.4-0.2-0.6-0.2
	C238.3,62.8,238.2,62.8,238.1,62.8L238.1,62.8z M262.4,54.2c-0.2-0.9-0.6-1.8-1-2.6c-0.4-0.8-1-1.5-1.6-2.2
	c-0.6-0.6-1.3-1.2-2.1-1.7c-0.8-0.4-1.7-0.8-2.6-1c-1-0.3-2-0.4-3-0.4c-1.5,0-3,0.3-4.4,0.8c-1.3,0.5-2.4,1.3-3.4,2.3
	c-1,1-1.7,2.2-2.2,3.4c-1,2.8-1,5.8,0,8.6c0.5,1.3,1.2,2.4,2.2,3.4c1,1,2.1,1.8,3.4,2.3c2.8,1.1,5.9,1.1,8.8,0
	c1.3-0.5,2.4-1.3,3.4-2.3c1-1,1.7-2.2,2.2-3.5c0.5-1.4,0.8-2.8,0.8-4.3C262.8,56.1,262.7,55.1,262.4,54.2L262.4,54.2z M258.2,60.2
	c-0.3,0.9-0.7,1.7-1.3,2.3c-0.6,0.6-1.3,1.1-2.1,1.5c-1.8,0.7-3.8,0.7-5.6,0c-0.8-0.3-1.5-0.8-2.1-1.5c-0.6-0.7-1.1-1.5-1.3-2.3
	c-0.3-1-0.5-2.1-0.5-3.1c0-1.1,0.1-2.1,0.5-3.1c0.3-0.9,0.7-1.7,1.3-2.3c0.6-0.6,1.3-1.2,2.1-1.5c1.8-0.7,3.8-0.7,5.6,0
	c0.8,0.3,1.5,0.8,2.1,1.5c0.6,0.7,1.1,1.5,1.3,2.4c0.3,1,0.5,2.1,0.5,3.1C258.7,58.2,258.6,59.2,258.2,60.2z M270,56.6v-7h2.5
	c1.1-0.1,2.3,0.2,3.2,0.9c0.7,0.6,1.1,1.5,1.1,2.5c0,0.5-0.1,1-0.3,1.5c-0.2,0.4-0.4,0.8-0.8,1.2c-0.4,0.4-0.9,0.6-1.4,0.8
	c-0.6,0.2-1.3,0.3-1.9,0.3L270,56.6z M277.3,59.9c-0.2-0.3-0.4-0.5-0.6-0.7c-0.2-0.2-0.4-0.4-0.7-0.5c0.7-0.2,1.4-0.5,2-0.9
	c0.6-0.4,1.1-0.8,1.5-1.4c0.4-0.5,0.7-1.1,0.9-1.7c0.5-1.5,0.4-3.1-0.1-4.5c-0.3-0.7-0.8-1.4-1.5-1.9c-0.8-0.6-1.6-1-2.6-1.2
	c-1.2-0.3-2.4-0.5-3.7-0.5h-6.5v21.1h3.9v-8.3h1.7c0.3,0,0.6,0,0.9,0.2c0.2,0.1,0.4,0.3,0.5,0.5l4.5,6.8c0.3,0.5,0.9,0.8,1.5,0.8
	h3.6C282.6,67.7,277.3,59.9,277.3,59.9z M288.6,57.2v-7.6h2.9c0.6,0,1.3,0.1,1.9,0.2c0.5,0.1,1,0.4,1.3,0.7c0.4,0.3,0.6,0.7,0.8,1.2
	c0.2,0.5,0.3,1,0.3,1.5c0,0.5-0.1,1.1-0.3,1.6c-0.2,0.5-0.4,0.9-0.8,1.2c-0.4,0.4-0.8,0.6-1.3,0.8c-0.6,0.2-1.2,0.3-1.9,0.3H288.6z
	 M284.7,46.5v21.2h3.9v-7.4h2.9c1.2,0,2.4-0.1,3.6-0.5c0.9-0.3,1.8-0.8,2.6-1.4c0.7-0.6,1.2-1.4,1.5-2.2c0.4-0.9,0.5-1.8,0.5-2.8
	c0-0.9-0.2-1.9-0.5-2.7c-0.3-0.8-0.8-1.6-1.5-2.1c-0.7-0.7-1.6-1.1-2.6-1.4c-1.2-0.4-2.4-0.5-3.7-0.5L284.7,46.5z M322.6,54.2
	c-0.2-0.9-0.6-1.8-1-2.6c-0.4-0.8-1-1.5-1.6-2.2c-0.6-0.6-1.3-1.2-2.1-1.7c-0.8-0.4-1.7-0.8-2.6-1c-1-0.3-2-0.4-3-0.4
	c-1.5,0-3,0.3-4.4,0.8c-1.3,0.5-2.4,1.3-3.4,2.3c-1,1-1.7,2.2-2.2,3.4c-1,2.8-1,5.8,0,8.6c0.5,1.3,1.2,2.4,2.2,3.4
	c1,1,2.1,1.7,3.4,2.3c2.8,1.1,5.9,1.1,8.8,0c1.3-0.5,2.4-1.3,3.3-2.3c1-1,1.7-2.2,2.2-3.4c0.5-1.4,0.8-2.8,0.8-4.3
	C322.9,56.1,322.8,55.1,322.6,54.2L322.6,54.2z M318.4,60.2c-0.3,0.9-0.7,1.7-1.3,2.3c-0.6,0.6-1.3,1.1-2.1,1.5
	c-1.8,0.7-3.8,0.7-5.6,0c-0.8-0.3-1.5-0.8-2.1-1.5c-0.6-0.7-1-1.5-1.3-2.3c-0.3-1-0.5-2.1-0.5-3.1c0-1.1,0.1-2.1,0.5-3.1
	c0.3-0.9,0.7-1.7,1.3-2.3c0.6-0.6,1.3-1.2,2.1-1.5c1.8-0.7,3.8-0.7,5.6,0c0.8,0.3,1.5,0.8,2.1,1.5c0.6,0.7,1,1.5,1.3,2.3
	c0.3,1,0.5,2.1,0.5,3.1C318.9,58.2,318.8,59.2,318.4,60.2L318.4,60.2z M330.2,56.6v-7h2.5c1.1-0.1,2.3,0.2,3.2,0.9
	c0.7,0.6,1.1,1.5,1,2.4c0,0.5-0.1,1-0.3,1.5c-0.2,0.4-0.4,0.8-0.8,1.2c-0.4,0.4-0.9,0.6-1.4,0.8c-0.6,0.2-1.3,0.3-1.9,0.3
	L330.2,56.6z M337.5,59.9c-0.2-0.3-0.4-0.5-0.6-0.7c-0.2-0.2-0.4-0.4-0.7-0.5c0.7-0.2,1.4-0.5,2-0.9c0.6-0.4,1.1-0.8,1.5-1.4
	c0.4-0.5,0.7-1.1,0.9-1.7c0.5-1.5,0.4-3.1-0.1-4.5c-0.3-0.8-0.8-1.4-1.5-1.9c-0.8-0.6-1.6-1-2.6-1.2c-1.2-0.3-2.4-0.5-3.7-0.5h-6.5
	v21.1h3.9v-8.3h1.7c0.3,0,0.6,0,0.9,0.2c0.2,0.1,0.4,0.3,0.5,0.5l4.4,6.8c0.3,0.5,0.9,0.8,1.5,0.8h3.5L337.5,59.9L337.5,59.9z
	 M350.6,59.7l2.6-7c0.1-0.3,0.2-0.7,0.4-1.1s0.3-0.9,0.4-1.4c0.1,0.5,0.3,1,0.4,1.4c0.1,0.4,0.2,0.7,0.4,1.1l2.6,7L350.6,59.7z
	 M356,46.5h-4l-8.4,21.2h3.1c0.3,0,0.6-0.1,0.8-0.3c0.2-0.2,0.4-0.4,0.5-0.6l1.6-4.3h8.8l1.6,4.3c0.1,0.3,0.3,0.5,0.5,0.6
	c0.2,0.2,0.5,0.3,0.8,0.2h3L356,46.5z M378.8,46.5h-16.7v3.2h6.4v17.9h3.9V49.8h6.4V46.5z M394.5,49.7v-3.1h-13.4v21.2h13.3v-3.1
	h-9.4v-6h7.4v-3h-7.4v-5.9L394.5,49.7z"/>
</svg>
