<svg xmlns="http://www.w3.org/2000/svg" viewBox="0 0 253.14 79.44"><defs><style>.a{fill:#fff;}.b{fill:#efd84e;}</style></defs><title>00-03 CHA Logo ohne Claim 2-Zeiler 1c Weiss Gelb</title><path class="a" d="M51,21.65A23.52,23.52,0,1,0,35.41,51,23.53,23.53,0,0,0,51,21.65Z" transform="translate(-5 -5)"/><path class="b" d="M51,21.65A23.52,23.52,0,1,0,35.41,51,23.53,23.53,0,0,0,51,21.65Z" transform="translate(-5 -5)"/><path class="a" d="M86.41,61.56v9.73H75.79V61.56H71.57V84.19h4.22V74.3H86.41v9.89h4.23V61.56Zm14.78,14.08,2.74-7.49c.13-.34.28-.75.42-1.21s.29-1,.42-1.5c.15.54.3,1,.44,1.49s.29.86.42,1.19l2.76,7.52Zm5.74-14.08h-4.28L93.74,84.19H97a1.35,1.35,0,0,0,.89-.3,1.58,1.58,0,0,0,.49-.66l1.69-4.61h9.37l1.69,4.61a1.63,1.63,0,0,0,.51.68,1.36,1.36,0,0,0,.9.28h3.25l-8.89-22.63Zm16.2,11.38V64.82h3.15a6.79,6.79,0,0,1,2,.27,3.79,3.79,0,0,1,1.43.79,3.37,3.37,0,0,1,.84,1.25,4.53,4.53,0,0,1,.28,1.65,4.93,4.93,0,0,1-.28,1.72,3.38,3.38,0,0,1-.85,1.32,3.8,3.8,0,0,1-1.43.83,6.47,6.47,0,0,1-2,.29Zm-4.21-11.38V84.19h4.21v-8h3.15a12.38,12.38,0,0,0,3.85-.54,7.62,7.62,0,0,0,2.75-1.54,6.14,6.14,0,0,0,1.64-2.35,7.94,7.94,0,0,0,.55-3,7.81,7.81,0,0,0-.52-2.91,5.93,5.93,0,0,0-1.61-2.29,7.75,7.75,0,0,0-2.73-1.49,13.11,13.11,0,0,0-3.93-.53Zm24,11.38V64.82H146a6.79,6.79,0,0,1,2,.27,3.75,3.75,0,0,1,1.42.79,3.27,3.27,0,0,1,.85,1.25,4.53,4.53,0,0,1,.28,1.65,4.93,4.93,0,0,1-.28,1.72,3.38,3.38,0,0,1-.85,1.32,3.84,3.84,0,0,1-1.44.83,6.36,6.36,0,0,1-2,.29Zm-4.21-11.38V84.19h4.21v-8H146a12.38,12.38,0,0,0,3.85-.54,7.7,7.7,0,0,0,2.75-1.54,6.14,6.14,0,0,0,1.64-2.35,7.94,7.94,0,0,0,.55-3,7.81,7.81,0,0,0-.53-2.91,5.81,5.81,0,0,0-1.6-2.29A7.72,7.72,0,0,0,150,62.09a13,13,0,0,0-3.92-.53Zm24.06,0h-4.23V84.19h4.23V61.56Zm21.12,0V75.32c0,.3,0,.63,0,1s.05.72.08,1.08L172.11,62.24a4.54,4.54,0,0,0-.31-.36,2.17,2.17,0,0,0-.29-.2,1,1,0,0,0-.35-.09,3,3,0,0,0-.46,0h-2.21V84.19h3.71V70.29c0-.58,0-1.22-.09-1.91l11.81,15.09a2,2,0,0,0,.65.55,1.87,1.87,0,0,0,.84.17h2.16V61.56Zm23.74,3.35V61.56H193.33V84.19H207.6V80.82h-10v-6.4h7.92V71.19h-7.92V64.91Zm17.78-1.22a8.34,8.34,0,0,0-2.88-1.75,10.43,10.43,0,0,0-3.69-.63,8.61,8.61,0,0,0-3.16.55,6.91,6.91,0,0,0-2.31,1.46,6.08,6.08,0,0,0-1.44,2.08,6.29,6.29,0,0,0-.49,2.41,6.62,6.62,0,0,0,.45,2.6A5,5,0,0,0,213,72.17a6.18,6.18,0,0,0,1.67,1.14,14,14,0,0,0,1.91.75c.65.21,1.28.41,1.91.58a9.23,9.23,0,0,1,1.67.65,3.68,3.68,0,0,1,1.19.95,2.3,2.3,0,0,1,.44,1.45,3.08,3.08,0,0,1-1,2.45,4.14,4.14,0,0,1-2.79.86,5.5,5.5,0,0,1-2-.33,8,8,0,0,1-1.46-.71c-.42-.26-.78-.49-1.08-.71a1.53,1.53,0,0,0-.85-.32,1,1,0,0,0-.53.15,1.33,1.33,0,0,0-.41.37l-1.23,2a9.6,9.6,0,0,0,1.5,1.22,11,11,0,0,0,1.81.93,10.4,10.4,0,0,0,2,.61,10.83,10.83,0,0,0,2.13.21,9.08,9.08,0,0,0,3.33-.57,7.21,7.21,0,0,0,2.46-1.57A6.54,6.54,0,0,0,225.27,80a7.78,7.78,0,0,0,.52-2.87,5.7,5.7,0,0,0-.45-2.39A5,5,0,0,0,224.16,73a6.91,6.91,0,0,0-1.67-1.13c-.63-.29-1.27-.55-1.93-.78l-1.92-.63a10.93,10.93,0,0,1-1.67-.68,3.85,3.85,0,0,1-1.19-.9,2,2,0,0,1-.44-1.33,2.88,2.88,0,0,1,.22-1.15,2.34,2.34,0,0,1,.66-.9,3.26,3.26,0,0,1,1.11-.59,5,5,0,0,1,1.53-.21,5.23,5.23,0,0,1,1.68.24,6.88,6.88,0,0,1,1.24.54c.36.2.66.38.92.54a1.36,1.36,0,0,0,.71.24,1,1,0,0,0,.53-.14,1.4,1.4,0,0,0,.39-.48l1-2Zm17.75,0a8.34,8.34,0,0,0-2.88-1.75,10.51,10.51,0,0,0-3.69-.63,8.57,8.57,0,0,0-3.16.55,7.06,7.06,0,0,0-2.32,1.46,6.19,6.19,0,0,0-1.43,2.08,6.11,6.11,0,0,0-.49,2.41,6.82,6.82,0,0,0,.44,2.6,5.18,5.18,0,0,0,1.18,1.76,6.08,6.08,0,0,0,1.68,1.14,13.51,13.51,0,0,0,1.91.75c.64.21,1.28.41,1.91.58a9.53,9.53,0,0,1,1.67.65,3.63,3.63,0,0,1,1.18.95,2.24,2.24,0,0,1,.45,1.45,3.05,3.05,0,0,1-1,2.45,4.11,4.11,0,0,1-2.78.86,5.42,5.42,0,0,1-2-.33,8.39,8.39,0,0,1-1.47-.71c-.41-.26-.77-.49-1.08-.71a1.5,1.5,0,0,0-.84-.32,1,1,0,0,0-.53.15,1.23,1.23,0,0,0-.41.37l-1.24,2a9.25,9.25,0,0,0,1.51,1.22,10.92,10.92,0,0,0,1.8.93,10.4,10.4,0,0,0,2,.61,10.83,10.83,0,0,0,2.13.21,9.08,9.08,0,0,0,3.33-.57,7.26,7.26,0,0,0,2.47-1.57A6.65,6.65,0,0,0,243,80a7.79,7.79,0,0,0,.53-2.87,5.7,5.7,0,0,0-.45-2.39A5.09,5.09,0,0,0,241.91,73a6.78,6.78,0,0,0-1.68-1.13,20.28,20.28,0,0,0-1.92-.78l-1.92-.63a11.07,11.07,0,0,1-1.68-.68,3.8,3.8,0,0,1-1.18-.9,2,2,0,0,1-.45-1.33,3.06,3.06,0,0,1,.22-1.15,2.36,2.36,0,0,1,.67-.9,3.21,3.21,0,0,1,1.1-.59,5.05,5.05,0,0,1,1.53-.21,5.34,5.34,0,0,1,1.69.24,7.2,7.2,0,0,1,1.24.54l.92.54a1.34,1.34,0,0,0,.71.24.94.94,0,0,0,.52-.14,1.42,1.42,0,0,0,.4-.48l1-2Zm8,.51V62.08H252a2.65,2.65,0,0,1,.62.06.86.86,0,0,1,.37.19.74.74,0,0,1,.19.32,2,2,0,0,1,.05.45,1.68,1.68,0,0,1-.06.47.78.78,0,0,1-.21.35,1,1,0,0,1-.42.21,3.22,3.22,0,0,1-.7.07Zm-1.78-3.46v7.4h1.78V65.46h.45a.63.63,0,0,1,.31.06.52.52,0,0,1,.18.18l1.19,2.17a.54.54,0,0,0,.52.27h1.69L254,65.61a3.15,3.15,0,0,0-.24-.38,1.14,1.14,0,0,0-.31-.27A2.06,2.06,0,0,0,255,62.88a1.85,1.85,0,0,0-.71-1.58,3.7,3.7,0,0,0-2.26-.56Zm.74,8.43a5,5,0,0,1-1.58-1.09,5.15,5.15,0,0,1-1.05-1.62,5.28,5.28,0,0,1-.38-2,5.67,5.67,0,0,1,.17-1.38,5.29,5.29,0,0,1,.5-1.23,4.92,4.92,0,0,1,.77-1,5.17,5.17,0,0,1,1-.8,4.86,4.86,0,0,1,1.19-.51,4.8,4.8,0,0,1,1.33-.18,4.89,4.89,0,0,1,2.54.69,5,5,0,0,1,1.8,1.84,5.77,5.77,0,0,1,.5,1.23,5.67,5.67,0,0,1,.17,1.38,5.53,5.53,0,0,1-.17,1.37,5.69,5.69,0,0,1-.5,1.22,5.27,5.27,0,0,1-.78,1,4.89,4.89,0,0,1-1,.79,4.89,4.89,0,0,1-2.54.69,4.85,4.85,0,0,1-2-.39Zm.34-10.58a6,6,0,0,0-1.45.61,6,6,0,0,0-2.18,2.19,6,6,0,0,0-.61,1.45,6.07,6.07,0,0,0,0,3.24A6.09,6.09,0,0,0,249,69.7a6,6,0,0,0,3.06.84,6.21,6.21,0,0,0,1.62-.22,6.11,6.11,0,0,0,1.46-.62,6.1,6.1,0,0,0,2.18-2.18,5.85,5.85,0,0,0,.61-1.45,5.74,5.74,0,0,0,.22-1.61,5.81,5.81,0,0,0-.22-1.62,6,6,0,0,0-.61-1.45,6,6,0,0,0-2.18-2.19,6.09,6.09,0,0,0-1.46-.61,5.81,5.81,0,0,0-1.62-.22,5.69,5.69,0,0,0-1.61.22Z" transform="translate(-5 -5)"/><path class="a" d="M85.6,47.79a2.11,2.11,0,0,0-.31.21,6.25,6.25,0,0,1-1,.74,5.19,5.19,0,0,1-1,.49,6.2,6.2,0,0,1-1.2.28,10.79,10.79,0,0,1-1.46.09,6.22,6.22,0,0,1-2.51-.51,5.86,5.86,0,0,1-2-1.45A7.26,7.26,0,0,1,74.7,45.3a9.48,9.48,0,0,1-.5-3.18A9.57,9.57,0,0,1,74.67,39,6.81,6.81,0,0,1,76,36.63a5.79,5.79,0,0,1,2-1.47,6.66,6.66,0,0,1,2.6-.5,7,7,0,0,1,2.59.43,6.14,6.14,0,0,1,.85.4c.24.15.46.28.64.41l.51.3a.92.92,0,0,0,.46.13.9.9,0,0,0,.5-.13,1.46,1.46,0,0,0,.3-.31l1.32-1.83a9.88,9.88,0,0,0-3-2,10.42,10.42,0,0,0-4.11-.76,11,11,0,0,0-4.24.79,9.75,9.75,0,0,0-3.3,2.24,9.88,9.88,0,0,0-2.14,3.41,12.08,12.08,0,0,0-.77,4.37,13,13,0,0,0,.71,4.35,9.88,9.88,0,0,0,2.05,3.42,9.19,9.19,0,0,0,3.21,2.24,10.57,10.57,0,0,0,4.23.81,11,11,0,0,0,4.52-.85,8.56,8.56,0,0,0,3.17-2.45L86.51,48a.78.78,0,0,0-.57-.25.81.81,0,0,0-.34.08Zm24.32-8.62a10.62,10.62,0,0,0-1-2.61,10.1,10.1,0,0,0-1.61-2.17,9.84,9.84,0,0,0-2.13-1.66,10.72,10.72,0,0,0-2.6-1,11.87,11.87,0,0,0-3-.37,11.46,11.46,0,0,0-4.38.81,9.89,9.89,0,0,0-3.38,2.26,10.28,10.28,0,0,0-2.19,3.43,12.3,12.3,0,0,0,0,8.62,10.18,10.18,0,0,0,2.19,3.43,9.89,9.89,0,0,0,3.38,2.26,12.13,12.13,0,0,0,8.77,0,9.8,9.8,0,0,0,3.38-2.26,10,10,0,0,0,2.17-3.43,11.67,11.67,0,0,0,.77-4.31,12.29,12.29,0,0,0-.34-2.95Zm-4.15,6.08a6.69,6.69,0,0,1-1.33,2.34,5.78,5.78,0,0,1-2.1,1.47,7.89,7.89,0,0,1-5.58,0,5.78,5.78,0,0,1-2.1-1.47,6.41,6.41,0,0,1-1.34-2.34,9.57,9.57,0,0,1-.47-3.13A9.47,9.47,0,0,1,93.32,39a6.45,6.45,0,0,1,1.34-2.35,5.69,5.69,0,0,1,2.1-1.48,7.89,7.89,0,0,1,5.58,0,5.69,5.69,0,0,1,2.1,1.48A6.74,6.74,0,0,1,105.77,39a9.74,9.74,0,0,1,.47,3.12,9.85,9.85,0,0,1-.47,3.13Zm11.76-3.64v-7h2.52a5.06,5.06,0,0,1,3.24.86,3,3,0,0,1,1.06,2.47,4.14,4.14,0,0,1-.26,1.48,3.14,3.14,0,0,1-.8,1.16,3.67,3.67,0,0,1-1.36.77,6,6,0,0,1-1.94.28Zm7.29,3.28a3.48,3.48,0,0,0-.59-.71,3.53,3.53,0,0,0-.7-.52,7.51,7.51,0,0,0,2-.92A6.39,6.39,0,0,0,127,41.38a6.06,6.06,0,0,0,.9-1.73,6.64,6.64,0,0,0-.15-4.49,4.93,4.93,0,0,0-1.46-1.92A7,7,0,0,0,123.74,32a13.3,13.3,0,0,0-3.69-.45h-6.46V52.7h3.94V44.43h1.68a2,2,0,0,1,.89.16,1.6,1.6,0,0,1,.55.55l4.45,6.77a1.55,1.55,0,0,0,1.46.79h3.55l-5.29-7.81Zm11.33-2.71V34.59h2.94a6.3,6.3,0,0,1,1.9.25,3.49,3.49,0,0,1,1.33.74,3,3,0,0,1,.8,1.17,4.4,4.4,0,0,1,.26,1.54,4.81,4.81,0,0,1-.26,1.61,3.17,3.17,0,0,1-.8,1.23,3.62,3.62,0,0,1-1.34.78,6,6,0,0,1-1.89.27Zm-3.94-10.64V52.7h3.94V45.25h2.94a11.52,11.52,0,0,0,3.61-.51,7.25,7.25,0,0,0,2.57-1.43,5.87,5.87,0,0,0,1.53-2.21,7.51,7.51,0,0,0,.51-2.81,7.27,7.27,0,0,0-.49-2.72,5.34,5.34,0,0,0-1.5-2.14A6.9,6.9,0,0,0,142.76,32a12.06,12.06,0,0,0-3.67-.5Zm37.91,7.63a10.64,10.64,0,0,0-1-2.61,10.06,10.06,0,0,0-1.6-2.17,9.84,9.84,0,0,0-2.13-1.66,10.89,10.89,0,0,0-2.6-1,11.87,11.87,0,0,0-3-.37,11.46,11.46,0,0,0-4.38.81,9.84,9.84,0,0,0-5.57,5.69,12.3,12.3,0,0,0,0,8.62,9.84,9.84,0,0,0,5.57,5.69,12.13,12.13,0,0,0,8.77,0,9.89,9.89,0,0,0,3.38-2.26,10.13,10.13,0,0,0,2.17-3.43,11.87,11.87,0,0,0,.77-4.31,12.82,12.82,0,0,0-.34-2.95ZM166,45.25a6.85,6.85,0,0,1-1.33,2.34,5.78,5.78,0,0,1-2.1,1.47,7.89,7.89,0,0,1-5.58,0,5.82,5.82,0,0,1-2.11-1.47,6.71,6.71,0,0,1-1.34-2.34,9.85,9.85,0,0,1-.46-3.13,9.75,9.75,0,0,1,.46-3.12,6.75,6.75,0,0,1,1.34-2.35A5.73,5.73,0,0,1,157,35.17a7.89,7.89,0,0,1,5.58,0,5.69,5.69,0,0,1,2.1,1.48A6.9,6.9,0,0,1,166,39a9.74,9.74,0,0,1,.47,3.12,9.85,9.85,0,0,1-.47,3.13Zm11.76-3.64v-7h2.51a5.07,5.07,0,0,1,3.25.86,3,3,0,0,1,1.06,2.47,3.94,3.94,0,0,1-.27,1.48,3,3,0,0,1-.79,1.16,3.63,3.63,0,0,1-1.37.77,5.91,5.91,0,0,1-1.93.28ZM185,44.89a3.45,3.45,0,0,0-.58-.71,3.85,3.85,0,0,0-.7-.52,7.51,7.51,0,0,0,2-.92,6.14,6.14,0,0,0,1.46-1.36,5.85,5.85,0,0,0,.91-1.73,6.8,6.8,0,0,0-.15-4.49,5,5,0,0,0-1.46-1.92A7,7,0,0,0,183.94,32a13.33,13.33,0,0,0-3.7-.45h-6.45V52.7h3.94V44.43h1.68a2,2,0,0,1,.88.16,1.52,1.52,0,0,1,.55.55l4.45,6.77a1.55,1.55,0,0,0,1.47.79h3.55L185,44.89Zm13.14-.18,2.56-7c.13-.32.26-.7.4-1.13s.27-.9.39-1.4c.14.5.28,1,.41,1.39s.27.8.4,1.11l2.57,7Zm5.37-13.17h-4L191.19,52.7h3.07a1.23,1.23,0,0,0,.83-.28,1.38,1.38,0,0,0,.46-.61l1.58-4.32h8.76l1.58,4.32a1.62,1.62,0,0,0,.49.64,1.28,1.28,0,0,0,.83.25h3.05l-8.32-21.16Zm22.84,0h-16.7v3.24H216V52.7H220V34.78h6.38V31.54ZM242,34.67V31.54H228.68V52.7H242V49.56h-9.39v-6H240v-3h-7.4V34.67Z" transform="translate(-5 -5)"/></svg>